<?xml version="1.0" encoding="utf-8"?>
<!-- Generator: Adobe Illustrator 28.2.0, SVG Export Plug-In . SVG Version: 6.00 Build 0)  -->
<svg version="1.1" id="Primary_Logo" xmlns="http://www.w3.org/2000/svg" xmlns:xlink="http://www.w3.org/1999/xlink" x="0px"
	 y="0px" viewBox="0 0 343.8 143" style="enable-background:new 0 0 343.8 143;" xml:space="preserve">
<style type="text/css">
	.st0{fill-rule:evenodd;clip-rule:evenodd;fill:#0264A4;}
	.st1{fill-rule:evenodd;clip-rule:evenodd;fill:#FFCF00;}
	.st2{fill:#0264A4;}
	.st3{fill:#FFCF00;}
</style>
<g>
	<polygon class="st0" points="55.4,110.9 55.4,97.2 56.8,97.2 58.2,97.2 58.2,102.8 60.9,102.8 60.9,97.2 62.3,97.2 63.7,97.2 
		63.7,110.9 62.3,110.9 60.9,110.9 60.9,104.9 58.2,104.9 58.2,110.9 56.8,110.9 	"/>
	<path class="st0" d="M68.5,101.3v6.7c0,0.5,0.1,0.8,0.2,1c0.1,0.2,0.4,0.3,0.7,0.3c0.4,0,0.7-0.2,0.9-0.5c0.2-0.3,0.2-0.9,0.2-1.7
		v-5.8h1.2h1.3v9.5h-1.2h-1.2v-0.9c-0.7,0.8-1.4,1.1-2.3,1.1c-0.8,0-1.4-0.2-1.8-0.7c-0.4-0.5-0.6-1.1-0.6-2.1v-7h1.2H68.5z"/>
	<path class="st0" d="M74.9,110.9v-9.5h1.2h1.2v0.9l0,0c0.5-0.7,1.2-1.1,2.2-1.1c0.8,0,1.4,0.2,1.9,0.7c0.2,0.2,0.3,0.4,0.4,0.6
		c0.1-0.1,0.1-0.2,0.2-0.3c0.5-0.6,1.2-0.9,2.1-0.9c0.8,0,1.4,0.2,1.8,0.7c0.4,0.5,0.6,1.2,0.6,2.1v6.9h-1.2h-1.3v-6.7
		c0-0.4-0.1-0.8-0.2-1c-0.2-0.2-0.4-0.3-0.7-0.3c-0.4,0-0.6,0.1-0.8,0.4c-0.2,0.3-0.3,0.7-0.3,1.2v6.4h-1.2h-1.3v-6.7
		c0-0.4-0.1-0.8-0.2-1c-0.2-0.2-0.4-0.4-0.7-0.4c-0.4,0-0.7,0.2-0.9,0.5c-0.2,0.3-0.2,0.9-0.2,1.7v5.8h-1.2H74.9z"/>
	<path class="st0" d="M90.2,111.1c-0.7,0-1.3-0.2-1.7-0.7c-0.4-0.4-0.6-1.1-0.6-1.9V108c0-1.1,0.3-1.9,0.8-2.4
		c0.6-0.5,1.5-0.7,2.9-0.7h0.8v-1.2c0-0.4-0.1-0.6-0.2-0.8c-0.1-0.2-0.3-0.3-0.6-0.3c-0.3,0-0.6,0.1-0.7,0.3
		c-0.2,0.2-0.2,0.5-0.2,0.9v0.3h-2.5v-0.3c0-0.9,0.3-1.6,0.8-2c0.5-0.4,1.4-0.6,2.6-0.6c1.1,0,2,0.2,2.5,0.7
		c0.6,0.5,0.8,1.2,0.8,2.2v6.8h-2.4v-0.8l-0.1,0.1C91.9,110.8,91.2,111.1,90.2,111.1z M92.4,107.7v-1.3H92c-0.6,0-1,0.1-1.3,0.4
		c-0.2,0.3-0.4,0.7-0.4,1.3v0.6c0,0.3,0.1,0.5,0.2,0.7c0.2,0.2,0.4,0.3,0.6,0.3c0.4,0,0.6-0.2,0.8-0.5
		C92.3,108.8,92.4,108.3,92.4,107.7z"/>
	<path class="st0" d="M97,110.9v-9.5h1.2h1.3v0.9c0.5-0.7,1.3-1.1,2.3-1.1c0.7,0,1.3,0.2,1.6,0.6c0.4,0.4,0.5,1,0.5,1.9v7.2h-1.2
		h-1.3v-6.9c0-0.4-0.1-0.7-0.2-0.8c-0.1-0.2-0.4-0.3-0.7-0.3c-0.4,0-0.7,0.2-0.9,0.5c-0.2,0.3-0.2,0.9-0.2,1.7v5.8h-1.2H97z"/>
	<path class="st0" d="M106.1,110.9v-9.5h1.2h1.3v9.5h-1.2H106.1z M106.1,97.3h2.5v2.3h-2.5V97.3z"/>
	<path class="st0" d="M115.4,111c-0.5,0.1-1,0.1-1.7,0.1c-0.8,0-1.4-0.2-1.8-0.7s-0.6-1.2-0.6-2.1V103H110v-1.7h1.3v-1.5l2.5-1v2.6
		h1.6v1.7h-1.6v5.2c0,0.5,0,0.8,0.1,0.9c0.1,0.1,0.3,0.2,0.6,0.2c0.3,0,0.5,0,0.8-0.1V111z"/>
	<polygon class="st0" points="124.1,101.3 120.7,114.4 119.5,114.4 118.3,114.4 119.2,110.9 119.2,110.9 116.3,101.3 117.5,101.3 
		118.8,101.3 120.2,107.2 120.2,107.2 121.7,101.3 122.9,101.3 	"/>
	<polygon class="st0" points="125.2,112.7 125.7,108.3 128.2,108.3 126.9,112.7 	"/>
	<polygon class="st0" points="134.4,110.9 134.4,97.2 135.7,97.2 137.2,97.2 137.2,110.9 135.8,110.9 	"/>
	<path class="st0" d="M139.3,110.9v-9.5h1.2h1.3v0.9c0.5-0.7,1.3-1.1,2.3-1.1c0.7,0,1.3,0.2,1.6,0.6c0.4,0.4,0.5,1,0.5,1.9v7.2H145
		h-1.3v-6.9c0-0.4-0.1-0.7-0.2-0.8c-0.1-0.2-0.4-0.3-0.7-0.3c-0.4,0-0.7,0.2-0.9,0.5c-0.2,0.3-0.2,0.9-0.2,1.7v5.8h-1.2H139.3z"/>
	<path class="st0" d="M154.6,107.3v0.6c0,1.1-0.2,1.9-0.8,2.4c-0.5,0.5-1.4,0.8-2.5,0.8c-1.2,0-2-0.3-2.5-0.9
		c-0.5-0.6-0.8-1.5-0.8-2.8v-2.7c0-1.3,0.3-2.2,0.8-2.8c0.5-0.6,1.4-0.9,2.5-0.9c1.2,0,2,0.3,2.5,0.8c0.5,0.5,0.8,1.3,0.8,2.4v0.1
		v0.3h-2.5v-0.3c0-0.6,0-1-0.2-1.3c-0.1-0.3-0.3-0.4-0.6-0.4c-0.3,0-0.5,0.1-0.6,0.4c-0.1,0.3-0.2,0.7-0.2,1.4v2.7
		c0,0.9,0.1,1.5,0.2,1.7c0.1,0.3,0.3,0.4,0.6,0.4c0.3,0,0.5-0.1,0.7-0.4c0.1-0.2,0.2-0.6,0.1-1.2v-0.6H154.6z"/>
	<polygon class="st0" points="156.4,110.9 156.4,97.2 157.7,97.2 158.9,97.2 158.9,110.9 157.7,110.9 	"/>
	<path class="st0" d="M163.5,101.3v6.7c0,0.5,0.1,0.8,0.2,1c0.1,0.2,0.4,0.3,0.7,0.3c0.4,0,0.7-0.2,0.9-0.5c0.2-0.3,0.2-0.9,0.2-1.7
		v-5.8h1.2h1.3v9.5h-1.2h-1.2v-0.9c-0.7,0.8-1.4,1.1-2.3,1.1c-0.8,0-1.4-0.2-1.8-0.7c-0.4-0.5-0.6-1.1-0.6-2.1v-7h1.2H163.5z"/>
	<path class="st0" d="M173.9,104.2v-0.3c0-0.4,0-0.7-0.2-1c-0.1-0.2-0.3-0.3-0.6-0.3c-0.3,0-0.5,0.1-0.6,0.2
		c-0.1,0.2-0.2,0.4-0.2,0.7c0,0.3,0.1,0.5,0.3,0.7c0.2,0.2,0.5,0.4,1,0.6c1.2,0.5,2,1,2.4,1.4c0.4,0.4,0.6,1,0.6,1.8
		c0,1-0.3,1.7-0.9,2.2c-0.6,0.5-1.4,0.7-2.6,0.7c-1.2,0-2.1-0.2-2.6-0.7c-0.5-0.5-0.8-1.2-0.8-2.2V108v-0.3h2.5v0.3
		c0,0.6,0,1,0.2,1.2c0.1,0.2,0.4,0.3,0.8,0.3c0.3,0,0.6-0.1,0.7-0.3s0.2-0.5,0.2-0.9c0-0.3-0.1-0.6-0.3-0.9
		c-0.2-0.2-0.6-0.5-1.1-0.7c-1.2-0.5-2-1-2.4-1.4c-0.4-0.4-0.6-0.9-0.6-1.6c0-0.9,0.3-1.6,0.8-2.1c0.6-0.5,1.4-0.7,2.5-0.7
		c1.2,0,2,0.2,2.5,0.7c0.5,0.4,0.8,1.1,0.8,2l0,0.1v0.3H173.9z"/>
	<path class="st0" d="M178.2,110.9v-9.5h1.2h1.3v9.5h-1.2H178.2z M178.2,97.3h2.5v2.3h-2.5V97.3z"/>
	<path class="st0" d="M186.1,111.1c-1.2,0-2.1-0.3-2.7-0.9c-0.5-0.6-0.8-1.5-0.8-2.8v-2.7c0-1.3,0.3-2.2,0.8-2.8
		c0.5-0.6,1.4-0.9,2.7-0.9s2.1,0.3,2.7,0.9c0.5,0.6,0.8,1.5,0.8,2.8v2.7c0,1.3-0.3,2.2-0.8,2.8C188.2,110.8,187.3,111.1,186.1,111.1
		z M186.1,109.6c0.4,0,0.7-0.2,0.8-0.5c0.1-0.3,0.2-0.9,0.2-1.9v-2.7c0-0.7-0.1-1.2-0.2-1.5s-0.4-0.4-0.8-0.4
		c-0.4,0-0.6,0.1-0.8,0.4c-0.1,0.3-0.2,0.8-0.2,1.5v2.7c0,0.9,0.1,1.6,0.2,1.9C185.4,109.4,185.7,109.6,186.1,109.6z"/>
	<path class="st0" d="M191.5,110.9v-9.5h1.2h1.3v0.9c0.5-0.7,1.3-1.1,2.3-1.1c0.7,0,1.3,0.2,1.6,0.6c0.4,0.4,0.5,1,0.5,1.9v7.2h-1.2
		H196v-6.9c0-0.4-0.1-0.7-0.2-0.8c-0.1-0.2-0.4-0.3-0.7-0.3c-0.4,0-0.7,0.2-0.9,0.5c-0.2,0.3-0.2,0.9-0.2,1.7v5.8h-1.2H191.5z"/>
	<path class="st0" d="M205.6,100.3c0-1,0.3-1.8,0.9-2.4c0.6-0.6,1.5-0.9,2.6-0.9c1,0,1.9,0.3,2.5,0.8c0.6,0.5,1,1.2,1,2.1
		c0,0.8-0.3,1.5-0.9,2.2c-0.4,0.5-1,0.9-1.7,1.4l2.5,3.3c0-0.2,0.1-0.3,0.1-0.5c0.1-0.7,0.2-1.6,0.1-2.9h1h1c0.1,1.3,0,2.5-0.2,3.4
		c-0.2,0.7-0.4,1.3-0.7,1.8l1.9,2.4h-1.4h-1.4l-0.7-0.8c-0.3,0.2-0.6,0.4-0.9,0.5c-0.8,0.3-1.6,0.5-2.5,0.5c-1.3,0-2.4-0.4-3.2-1.1
		c-0.8-0.7-1.2-1.7-1.2-2.8c0-1,0.2-1.8,0.7-2.4c0.3-0.4,0.9-0.9,1.7-1.5c-0.4-0.5-0.7-0.9-0.9-1.3
		C205.8,101.3,205.6,100.8,205.6,100.3z M209.4,109.3c0.6,0,1-0.1,1.4-0.3l0.5-0.3l-3.1-3.8c-0.3,0.2-0.5,0.4-0.7,0.6
		c-0.3,0.4-0.5,0.9-0.5,1.6c0,0.7,0.2,1.3,0.6,1.7C208.1,109.1,208.7,109.3,209.4,109.3z M208,100.1c0,0.3,0.1,0.6,0.3,1
		c0.1,0.2,0.3,0.5,0.6,0.9c0.3-0.2,0.5-0.4,0.7-0.6c0.4-0.4,0.6-0.8,0.6-1.3c0-0.4-0.1-0.7-0.3-0.9c-0.2-0.2-0.5-0.4-0.8-0.4
		c-0.3,0-0.6,0.1-0.8,0.3C208.1,99.4,208,99.7,208,100.1z"/>
	<path class="st0" d="M221.9,110.9V97.2h1.4h2.3c1.8,0,3,0.3,3.8,1c0.7,0.7,1.1,1.9,1.1,3.5v3.8c0,2.1-0.3,3.5-1,4.2
		c-0.7,0.7-1.9,1.1-3.7,1.1h-2.4H221.9z M224.7,108.8h0.7c0.9,0,1.5-0.2,1.8-0.5c0.3-0.4,0.5-1,0.5-2.1v-4.5c0-0.9-0.2-1.6-0.5-1.9
		c-0.3-0.3-1-0.5-1.9-0.5h-0.6V108.8z"/>
	<path class="st0" d="M235.5,111.1c-1.2,0-2-0.3-2.5-0.9c-0.5-0.6-0.8-1.5-0.8-2.8v-1.9c0-1.6,0.3-2.7,0.8-3.3c0.5-0.6,1.4-1,2.7-1
		c1.4,0,2.3,0.3,2.8,0.8c0.5,0.6,0.7,1.6,0.7,3.2v1.4h-4.5v0.3c0,1.1,0.1,1.8,0.2,2.2c0.1,0.4,0.4,0.5,0.8,0.5
		c0.4,0,0.7-0.1,0.8-0.4c0.2-0.3,0.2-0.7,0.2-1.3v-0.3h2.5v0.3c0,1.1-0.3,1.8-0.9,2.4C237.7,110.8,236.8,111.1,235.5,111.1z
		 M236.8,105.1v-0.5c0-0.7-0.1-1.2-0.2-1.5c-0.1-0.3-0.4-0.4-0.8-0.4c-0.4,0-0.7,0.2-0.8,0.5c-0.1,0.3-0.2,0.9-0.2,1.8v0.1H236.8z"
		/>
	<polygon class="st0" points="240.4,101.3 241.7,101.3 242.9,101.3 244.3,108.4 244.3,108.4 245.6,101.3 246.9,101.3 248.1,101.3 
		245.9,110.9 244.3,110.9 242.6,110.9 	"/>
	<path class="st0" d="M252.6,111.1c-1.2,0-2-0.3-2.5-0.9c-0.5-0.6-0.8-1.5-0.8-2.8v-1.9c0-1.6,0.3-2.7,0.8-3.3c0.5-0.6,1.4-1,2.7-1
		c1.4,0,2.3,0.3,2.8,0.8c0.5,0.6,0.7,1.6,0.7,3.2v1.4h-4.5v0.3c0,1.1,0.1,1.8,0.2,2.2c0.1,0.4,0.4,0.5,0.8,0.5
		c0.4,0,0.7-0.1,0.8-0.4c0.2-0.3,0.2-0.7,0.2-1.3v-0.3h2.5v0.3c0,1.1-0.3,1.8-0.9,2.4C254.8,110.8,253.8,111.1,252.6,111.1z
		 M253.8,105.1v-0.5c0-0.7-0.1-1.2-0.2-1.5c-0.1-0.3-0.4-0.4-0.8-0.4c-0.4,0-0.7,0.2-0.8,0.5c-0.1,0.3-0.2,0.9-0.2,1.8v0.1H253.8z"
		/>
	<polygon class="st0" points="258,110.9 258,97.2 259.3,97.2 260.5,97.2 260.5,110.9 259.3,110.9 	"/>
	<path class="st0" d="M266,111.1c-1.2,0-2.1-0.3-2.7-0.9c-0.5-0.6-0.8-1.5-0.8-2.8v-2.7c0-1.3,0.3-2.2,0.8-2.8
		c0.5-0.6,1.4-0.9,2.7-0.9c1.2,0,2.1,0.3,2.7,0.9c0.5,0.6,0.8,1.5,0.8,2.8v2.7c0,1.3-0.3,2.2-0.8,2.8
		C268.1,110.8,267.2,111.1,266,111.1z M266,109.6c0.4,0,0.7-0.2,0.8-0.5c0.1-0.3,0.2-0.9,0.2-1.9v-2.7c0-0.7-0.1-1.2-0.2-1.5
		c-0.2-0.3-0.4-0.4-0.8-0.4c-0.4,0-0.6,0.1-0.8,0.4s-0.2,0.8-0.2,1.5v2.7c0,0.9,0.1,1.6,0.2,1.9C265.3,109.4,265.6,109.6,266,109.6z
		"/>
	<path class="st0" d="M271.2,101.3h1.2h1.3v0.8l0,0c0.5-0.6,1.2-1,2.2-1c0.8,0,1.3,0.2,1.7,0.7c0.4,0.5,0.6,1.2,0.6,2.2v3.4
		c0,1.3-0.2,2.2-0.5,2.8c-0.3,0.5-1,0.8-1.8,0.8c-0.9,0-1.6-0.3-2.1-0.9v4.5h-1.2h-1.3V101.3z M274.7,109.4c0.4,0,0.7-0.1,0.8-0.4
		c0.1-0.3,0.2-0.9,0.2-1.8v-2.4c0-0.7-0.1-1.2-0.2-1.5c-0.1-0.3-0.4-0.4-0.8-0.4c-0.4,0-0.6,0.2-0.8,0.5c-0.2,0.3-0.2,0.9-0.2,1.6
		v2.2c0,0.9,0.1,1.4,0.2,1.7C274,109.2,274.3,109.4,274.7,109.4z"/>
	<path class="st0" d="M279.9,110.9v-9.5h1.2h1.2v0.9l0,0c0.5-0.7,1.2-1.1,2.2-1.1c0.8,0,1.4,0.2,1.9,0.7c0.2,0.2,0.3,0.4,0.4,0.6
		c0.1-0.1,0.1-0.2,0.2-0.3c0.5-0.6,1.2-0.9,2.1-0.9c0.8,0,1.4,0.2,1.8,0.7c0.4,0.5,0.6,1.2,0.6,2.1v6.9h-1.2h-1.3v-6.7
		c0-0.4-0.1-0.8-0.2-1c-0.2-0.2-0.4-0.3-0.7-0.3c-0.4,0-0.6,0.1-0.8,0.4c-0.2,0.3-0.3,0.7-0.3,1.2v6.4h-1.2h-1.3v-6.7
		c0-0.4-0.1-0.8-0.2-1c-0.2-0.2-0.4-0.4-0.7-0.4c-0.4,0-0.7,0.2-0.9,0.5c-0.2,0.3-0.2,0.9-0.2,1.7v5.8h-1.2H279.9z"/>
	<path class="st0" d="M296.2,111.1c-1.2,0-2-0.3-2.5-0.9c-0.5-0.6-0.8-1.5-0.8-2.8v-1.9c0-1.6,0.3-2.7,0.8-3.3c0.5-0.6,1.4-1,2.7-1
		c1.4,0,2.3,0.3,2.8,0.8c0.5,0.6,0.7,1.6,0.7,3.2v1.4h-4.5v0.3c0,1.1,0.1,1.8,0.2,2.2c0.1,0.4,0.4,0.5,0.8,0.5
		c0.4,0,0.7-0.1,0.8-0.4c0.2-0.3,0.2-0.7,0.2-1.3v-0.3h2.5v0.3c0,1.1-0.3,1.8-0.9,2.4C298.4,110.8,297.4,111.1,296.2,111.1z
		 M297.4,105.1v-0.5c0-0.7-0.1-1.2-0.2-1.5c-0.1-0.3-0.4-0.4-0.8-0.4c-0.4,0-0.7,0.2-0.8,0.5c-0.1,0.3-0.2,0.9-0.2,1.8v0.1H297.4z"
		/>
	<path class="st0" d="M301.6,110.9v-9.5h1.2h1.3v0.9c0.5-0.7,1.3-1.1,2.3-1.1c0.7,0,1.3,0.2,1.6,0.6c0.4,0.4,0.5,1,0.5,1.9v7.2h-1.2
		h-1.3v-6.9c0-0.4-0.1-0.7-0.2-0.8c-0.1-0.2-0.4-0.3-0.7-0.3c-0.4,0-0.7,0.2-0.9,0.5c-0.2,0.3-0.2,0.9-0.2,1.7v5.8h-1.2H301.6z"/>
	<path class="st0" d="M315.4,111c-0.5,0.1-1,0.1-1.7,0.1c-0.8,0-1.4-0.2-1.8-0.7c-0.4-0.5-0.6-1.2-0.6-2.1V103H310v-1.7h1.3v-1.5
		l2.5-1v2.6h1.6v1.7h-1.6v5.2c0,0.5,0,0.8,0.1,0.9c0.1,0.1,0.3,0.2,0.6,0.2c0.3,0,0.5,0,0.8-0.1V111z"/>
</g>
<g>
	<polygon class="st1" points="150.2,56.8 140,28.4 146.2,28.4 153.5,49.4 160.4,28.4 166.5,28.4 156.4,56.8 	"/>
	<path class="st1" d="M164.7,46.2c0-1.8,0.4-3.6,1.3-5.3c0.9-1.7,2.2-3,3.8-3.9c1.6-0.9,3.5-1.3,5.5-1.3c3.1,0,5.7,1,7.6,3
		c2,2,3,4.6,3,7.7c0,3.1-1,5.7-3,7.7c-2,2-4.5,3.1-7.6,3.1c-1.9,0-3.7-0.4-5.4-1.3c-1.7-0.9-3-2.1-3.9-3.8
		C165.2,50.6,164.7,48.6,164.7,46.2z M170.3,46.5c0,2,0.5,3.6,1.4,4.7c1,1.1,2.2,1.6,3.6,1.6c1.4,0,2.6-0.5,3.6-1.6
		c1-1.1,1.4-2.7,1.4-4.7c0-2-0.5-3.6-1.4-4.7c-1-1.1-2.1-1.6-3.6-1.6c-1.4,0-2.6,0.5-3.6,1.6C170.8,42.9,170.3,44.5,170.3,46.5z"/>
	<rect x="189.5" y="28.4" class="st1" width="5.4" height="28.4"/>
	<path class="st1" d="M213.4,56.8v-3.1c-0.8,1.1-1.7,2-3,2.6c-1.2,0.6-2.5,1-3.9,1c-1.4,0-2.6-0.3-3.7-0.9c-1.1-0.6-1.9-1.5-2.4-2.6
		c-0.5-1.1-0.7-2.6-0.7-4.6V36.2h5.4v9.5c0,2.9,0.1,4.7,0.3,5.3c0.2,0.7,0.6,1.2,1.1,1.6c0.5,0.4,1.2,0.6,2,0.6
		c0.9,0,1.8-0.3,2.5-0.8c0.7-0.5,1.2-1.1,1.5-1.9c0.3-0.8,0.4-2.6,0.4-5.6v-8.7h5.4v20.6H213.4z"/>
	<path class="st1" d="M242.1,56.8h-5.4V46.3c0-2.2-0.1-3.7-0.4-4.3c-0.2-0.7-0.6-1.2-1.1-1.5c-0.5-0.4-1.2-0.5-1.9-0.5
		c-1,0-1.8,0.3-2.6,0.8c-0.8,0.5-1.3,1.2-1.6,2.1c-0.3,0.9-0.4,2.4-0.4,4.7v9.3h-5.4V36.2h5v3c1.8-2.3,4.1-3.5,6.8-3.5
		c1.2,0,2.3,0.2,3.3,0.6c1,0.4,1.8,1,2.3,1.7c0.5,0.7,0.9,1.4,1.1,2.3c0.2,0.9,0.3,2.1,0.3,3.7V56.8z"/>
	<path class="st1" d="M256.3,36.2v4.3h-3.7v8.3c0,1.7,0,2.7,0.1,3c0.1,0.3,0.2,0.5,0.5,0.7c0.3,0.2,0.6,0.3,0.9,0.3
		c0.5,0,1.2-0.2,2.2-0.5l0.5,4.2c-1.3,0.5-2.7,0.8-4.3,0.8c-1,0-1.9-0.2-2.6-0.5c-0.8-0.3-1.4-0.8-1.7-1.3c-0.4-0.5-0.6-1.2-0.8-2.1
		c-0.1-0.6-0.2-1.9-0.2-3.9v-9h-2.5v-4.3h2.5v-4.1l5.4-3.2v7.3H256.3z"/>
	<path class="st1" d="M271.4,50.3l5.4,0.9c-0.7,2-1.8,3.5-3.3,4.5c-1.5,1-3.4,1.6-5.6,1.6c-3.6,0-6.2-1.2-7.9-3.5
		c-1.4-1.9-2-4.2-2-7.1c0-3.4,0.9-6.1,2.7-8c1.8-1.9,4-2.9,6.8-2.9c3.1,0,5.5,1,7.2,3c1.8,2,2.6,5.1,2.5,9.3h-13.6
		c0,1.6,0.5,2.9,1.3,3.8c0.8,0.9,1.9,1.3,3.1,1.3c0.8,0,1.6-0.2,2.1-0.7C270.7,52.1,271.1,51.3,271.4,50.3z M271.7,44.8
		c0-1.6-0.4-2.8-1.2-3.6c-0.8-0.8-1.7-1.2-2.8-1.2c-1.2,0-2.2,0.4-2.9,1.3c-0.8,0.9-1.2,2-1.1,3.5H271.7z"/>
	<path class="st1" d="M292.8,50.3l5.4,0.9c-0.7,2-1.8,3.5-3.3,4.5c-1.5,1-3.4,1.6-5.6,1.6c-3.6,0-6.2-1.2-7.9-3.5
		c-1.4-1.9-2-4.2-2-7.1c0-3.4,0.9-6.1,2.7-8c1.8-1.9,4-2.9,6.8-2.9c3.1,0,5.5,1,7.2,3c1.8,2,2.6,5.1,2.5,9.3h-13.6
		c0,1.6,0.5,2.9,1.3,3.8c0.8,0.9,1.9,1.3,3.1,1.3c0.8,0,1.6-0.2,2.1-0.7C292,52.1,292.5,51.3,292.8,50.3z M293.1,44.8
		c0-1.6-0.4-2.8-1.2-3.6c-0.8-0.8-1.7-1.2-2.8-1.2c-1.2,0-2.2,0.4-2.9,1.3c-0.8,0.9-1.2,2-1.1,3.5H293.1z"/>
	<path class="st1" d="M307.5,56.8H302V36.2h5v2.9c0.9-1.4,1.6-2.3,2.3-2.7c0.7-0.4,1.5-0.6,2.4-0.6c1.2,0,2.4,0.3,3.6,1l-1.7,4.7
		c-0.9-0.6-1.8-0.9-2.6-0.9c-0.8,0-1.4,0.2-1.9,0.6c-0.5,0.4-0.9,1.2-1.3,2.3c-0.3,1.1-0.5,3.4-0.5,6.9V56.8z"/>
	<g>
		<path class="st1" d="M161,74.5l3.6,1.1c-0.6,2-1.5,3.6-2.8,4.5c-1.3,1-2.9,1.5-4.9,1.5c-2.5,0-4.5-0.8-6.1-2.5
			c-1.6-1.7-2.4-4-2.4-6.9c0-3.1,0.8-5.5,2.4-7.2c1.6-1.7,3.7-2.6,6.3-2.6c2.3,0,4.1,0.7,5.5,2c0.8,0.8,1.5,1.9,1.9,3.4l-3.7,0.9
			c-0.2-1-0.7-1.7-1.4-2.3c-0.7-0.6-1.5-0.8-2.5-0.8c-1.4,0-2.5,0.5-3.3,1.5c-0.9,1-1.3,2.6-1.3,4.8c0,2.3,0.4,4,1.3,5
			c0.8,1,1.9,1.5,3.3,1.5c1,0,1.8-0.3,2.6-0.9C160.2,76.8,160.7,75.8,161,74.5z"/>
		<path class="st0" d="M190.5,74.4c0-1.2,0.3-2.3,0.9-3.4c0.6-1.1,1.4-1.9,2.5-2.5c1.1-0.6,2.3-0.9,3.6-0.9c2,0,3.7,0.7,5,2
			c1.3,1.3,1.9,3,1.9,5c0,2-0.7,3.7-2,5.1s-3,2-4.9,2c-1.2,0-2.4-0.3-3.5-0.8c-1.1-0.6-2-1.4-2.5-2.4
			C190.8,77.3,190.5,76,190.5,74.4z M194.2,74.6c0,1.3,0.3,2.4,0.9,3.1c0.6,0.7,1.4,1.1,2.3,1.1c0.9,0,1.7-0.4,2.3-1.1
			c0.6-0.7,0.9-1.7,0.9-3.1c0-1.3-0.3-2.3-0.9-3c-0.6-0.7-1.4-1.1-2.3-1.1c-0.9,0-1.7,0.4-2.3,1.1C194.5,72.3,194.2,73.3,194.2,74.6
			z"/>
		<path class="st0" d="M234.1,81.3h-3.5V67.9h3.3v1.9c0.6-0.9,1.1-1.5,1.5-1.8c0.5-0.3,1-0.4,1.5-0.4c0.8,0,1.6,0.2,2.3,0.7
			l-1.1,3.1c-0.6-0.4-1.2-0.6-1.7-0.6c-0.5,0-0.9,0.1-1.3,0.4c-0.3,0.3-0.6,0.8-0.8,1.5c-0.2,0.7-0.3,2.2-0.3,4.5V81.3z"/>
		<path class="st0" d="M264.2,67.9h3.3v2c0.4-0.7,1-1.2,1.7-1.6c0.7-0.4,1.5-0.6,2.4-0.6c1.6,0,2.9,0.6,4,1.8
			c1.1,1.2,1.6,2.9,1.6,5.1c0,2.2-0.5,4-1.6,5.2c-1.1,1.2-2.4,1.9-4,1.9c-0.7,0-1.4-0.1-2-0.4c-0.6-0.3-1.2-0.8-1.9-1.5v6.7h-3.5
			V67.9z M267.6,74.4c0,1.5,0.3,2.6,0.9,3.4c0.6,0.7,1.3,1.1,2.2,1.1c0.8,0,1.5-0.3,2.1-1c0.5-0.7,0.8-1.8,0.8-3.3
			c0-1.4-0.3-2.5-0.8-3.1c-0.6-0.7-1.3-1-2.1-1c-0.9,0-1.6,0.3-2.2,1C267.9,72.1,267.6,73.1,267.6,74.4z"/>
		<path class="st0" d="M301.7,77.5l3.6-0.5c0.2,0.7,0.5,1.2,0.9,1.6c0.5,0.4,1.1,0.5,1.9,0.5c0.9,0,1.6-0.2,2.1-0.5
			c0.3-0.2,0.5-0.6,0.5-0.9c0-0.3-0.1-0.5-0.3-0.7c-0.2-0.2-0.6-0.3-1.2-0.5c-2.9-0.6-4.7-1.2-5.4-1.7c-1.1-0.7-1.6-1.7-1.6-3
			c0-1.2,0.5-2.1,1.4-2.9c0.9-0.8,2.3-1.2,4.3-1.2c1.8,0,3.2,0.3,4.1,0.9c0.9,0.6,1.5,1.5,1.8,2.7l-3.3,0.6
			c-0.1-0.5-0.4-0.9-0.8-1.2c-0.4-0.3-1-0.4-1.7-0.4c-0.9,0-1.6,0.1-2,0.4c-0.3,0.2-0.4,0.4-0.4,0.7c0,0.3,0.1,0.5,0.4,0.6
			c0.3,0.2,1.4,0.6,3.3,1c1.9,0.4,3.2,1,4,1.6c0.7,0.6,1.1,1.5,1.1,2.6c0,1.2-0.5,2.3-1.5,3.2c-1,0.9-2.5,1.3-4.6,1.3
			c-1.8,0-3.3-0.4-4.3-1.1C302.7,79.8,302,78.8,301.7,77.5z"/>
	</g>
</g>
<path class="st2" d="M132.9,65.5c-2.4,15.1-15.6,26.7-31.4,26.7c-4.5,0-8.7-0.9-12.6-2.6c-3.8-1.6-7.2-4-10.1-6.9L88,60.5
	c0,1,4.5,13.3,13.1,13.6c0.1,0,0.3,0,0.4,0c5.5,0,9.3-4.7,11.4-8.6H132.9z"/>
<path class="st3" d="M132.9,55.4h-19.9c-2.2-3.9-6-8.6-11.4-8.6c-0.1,0-0.3,0-0.4,0c-5.3,0.2-9,4.9-11.1,8.7c-1.3,2.5-2,4.6-2,4.9v0
	l-9.1,22.3l-2.6,6.3L76,89.7H55.1L65,65.6l6.9-16.8c0.1-0.2,0.2-0.5,0.3-0.7c2.5-5.8,6.7-10.8,11.9-14.3c4.9-3.2,10.7-5.1,16.9-5.1
	c0.2,0,0.3,0,0.5,0C117.3,28.6,130.4,40.2,132.9,55.4z"/>
<polygon class="st2" points="65,65.6 55.1,89.7 55.1,89.7 28.4,33.8 49.8,33.8 "/>
</svg>
