<svg width="76" height="67" viewBox="0 0 76 67" fill="none" xmlns="http://www.w3.org/2000/svg">
<path fill-rule="evenodd" clip-rule="evenodd" d="M27.367 0.113089L27.4624 0.20594C28.7776 1.48028 29.6292 3.13561 29.8956 4.92545H69.76C69.1715 2.13348 66.6528 0.122662 63.7264 0.113072L27.367 0.113089ZM6.80645 66.2508H43.1659L43.0705 66.1579V66.1611C41.7553 64.8836 40.9037 63.2283 40.6374 61.4384H0.776245C1.36152 64.2304 3.88002 66.2412 6.80645 66.2508ZM64.2391 31.4049H62.309C61.4442 31.4081 60.7405 32.0933 60.7372 32.9354V33.9664C60.7372 34.4723 60.4052 34.9205 59.9152 35.0838C59.2675 35.2951 58.6428 35.5705 58.0542 35.9035C57.4722 36.2269 56.9264 36.6079 56.4233 37.0337C56.0353 37.3988 55.4434 37.4692 54.9765 37.2066L54.1348 36.7328V36.7296C54.0854 36.7072 54.0394 36.6783 53.9934 36.6495C53.2667 36.2941 52.3789 36.5311 51.9416 37.197C51.9186 37.2387 51.8956 37.2771 51.8693 37.3155L50.942 38.878C50.5178 39.6144 50.7776 40.5462 51.524 40.9752L52.3526 41.4395C52.8557 41.67 53.1319 42.2015 53.0266 42.733C52.9576 43.0788 52.905 43.4086 52.8754 43.7159C52.8458 44.0265 52.8294 44.3563 52.8294 44.7213C52.8294 45.0864 52.8458 45.4193 52.8754 45.7267C52.905 46.0309 52.9609 46.3671 53.0266 46.7097C53.1253 47.2028 52.8918 47.7022 52.4446 47.9552L51.5273 48.4707C50.7776 48.8965 50.5212 49.8315 50.9486 50.5679L51.912 52.1945H51.9153C52.3526 52.9245 53.3128 53.1742 54.069 52.758L54.937 52.2649H54.9403C55.3908 51.9831 55.9826 52.0248 56.3871 52.3706C56.9033 52.8124 57.4655 53.203 58.0607 53.5393C58.6296 53.8594 59.2313 54.1284 59.8527 54.3365C60.3788 54.4774 60.7471 54.9449 60.7471 55.4764V56.5073C60.7504 57.3526 61.454 58.0346 62.3188 58.0378H64.239C65.107 58.0346 65.8075 57.3526 65.814 56.5073V55.4891C65.814 54.9865 66.1428 54.535 66.636 54.3749C67.9184 53.949 69.1021 53.2863 70.1247 52.4218C70.5127 52.0568 71.1046 51.9863 71.5715 52.2521L72.4922 52.7676H72.4889C73.2484 53.1838 74.2053 52.9309 74.6459 52.2008L75.6093 50.5743C76.0367 49.8379 75.777 48.9029 75.0273 48.4771L74.1987 48.0128V48.0096C73.6989 47.7791 73.4194 47.2476 73.5279 46.7161C73.5969 46.3703 73.6496 46.0437 73.6792 45.7331C73.712 45.4225 73.7252 45.0895 73.7252 44.7277C73.7252 44.3627 73.7087 44.0265 73.6792 43.7223C73.6463 43.4085 73.5969 43.0787 73.5279 42.7362C73.4293 42.2431 73.6627 41.7436 74.1099 41.4939L74.9615 41.0168C74.9812 41.004 75.0042 40.9912 75.024 40.9784C75.7539 40.5589 76.0203 39.6592 75.629 38.9292L75.6027 38.8844L74.6393 37.2578C74.2085 36.547 73.2846 36.2876 72.5349 36.6655L72.4889 36.6911L71.5682 37.2098C71.121 37.4627 70.5555 37.4083 70.1674 37.0785C69.6512 36.6366 69.089 36.246 68.4938 35.9098C67.9249 35.5896 67.3232 35.3207 66.7018 35.1093C66.1757 34.9685 65.8074 34.5042 65.8074 33.9727V32.9353C65.8041 32.0901 65.1037 31.408 64.2357 31.4016L64.2391 31.4049ZM66.6591 41.4328C68.2703 43.0049 68.5202 45.4671 67.2543 47.3146C65.9851 49.1652 63.5519 49.8824 61.4443 49.0308C59.3366 48.1823 58.1364 45.9987 58.5837 43.8182C59.0275 41.6377 60.9906 40.0688 63.2757 40.0688C64.5449 40.0688 65.7615 40.5586 66.6591 41.4328ZM63.2757 37.709C66.715 37.709 69.6744 40.0719 70.3451 43.357C71.0159 46.6421 69.2106 49.9336 66.0344 51.2143C62.8581 52.4951 59.1919 51.4128 57.2819 48.6305C55.3682 45.8449 55.7463 42.1339 58.1762 39.7649C59.5277 38.4457 61.3621 37.7058 63.2757 37.709ZM10.7059 45.9632L4.05081 44.2278L3.74502 45.342H3.74173C3.50828 46.2001 3.63322 47.1127 4.09026 47.8811C5.02738 49.466 7.09557 50.0232 8.73631 49.1362C8.75275 49.1266 8.77248 49.1138 8.78892 49.1042C9.58135 48.6623 10.16 47.9291 10.3968 47.071L10.7026 45.9567L10.7059 45.9632ZM4.67547 41.9513L11.324 43.6867L19.3568 14.5146C19.4982 13.9991 19.4258 13.4451 19.1496 12.9841C18.8734 12.5198 18.4164 12.1804 17.887 12.0428L15.2434 11.3512V11.3544C14.7305 11.2199 14.1847 11.2807 13.7177 11.5273L13.6684 11.5561C13.1916 11.825 12.8398 12.2669 12.6985 12.7856L4.67547 41.9513ZM39.2462 21.5554C38.5754 21.5554 38.0329 21.0271 38.0329 20.3739C38.0329 19.7239 38.5754 19.1956 39.2462 19.1956H47.6538H47.6505C48.3213 19.1956 48.8638 19.7239 48.8638 20.3739C48.8638 21.0271 48.3213 21.5554 47.6505 21.5554H39.2462ZM39.2462 30.0693C38.5886 30.0533 38.0625 29.5282 38.0625 28.8878C38.0625 28.2475 38.5886 27.7255 39.2462 27.7064H47.6538H47.6505C48.3082 27.7256 48.8342 28.2475 48.8342 28.8878C48.8342 29.5282 48.3081 30.0533 47.6505 30.0693H39.2462ZM22.8817 38.5833C22.2241 38.5672 21.698 38.0421 21.698 37.4018C21.698 36.7614 22.2241 36.2395 22.8817 36.2235H45.1553C45.8129 36.2395 46.3357 36.7614 46.3357 37.4018C46.3357 38.0421 45.8128 38.5673 45.1553 38.5833H22.8817ZM22.8817 47.0972C22.2241 47.0812 21.698 46.5561 21.698 45.9157C21.698 45.2753 22.2241 44.7534 22.8817 44.7374H45.1553C45.8129 44.7534 46.3357 45.2753 46.3357 45.9157C46.3357 46.5561 45.8128 47.0812 45.1553 47.0972H22.8817ZM30.898 21.7611H24.9959V27.5052H30.8947L30.898 21.7611ZM23.7859 19.3982H32.1113H32.108C32.7755 19.3982 33.3213 19.9265 33.3213 20.5796V28.6867C33.3213 29.3367 32.7755 29.865 32.108 29.865H23.7826C23.1151 29.865 22.5726 29.3367 22.5693 28.6867V20.5796C22.5726 19.9265 23.1151 19.3982 23.7826 19.3982H23.7859ZM28.7707 7.28587H55.1545L55.2236 34.6293C53.3493 33.6047 50.9819 34.2067 49.8607 35.9933L49.8508 36.0093C49.5154 36.5697 49.1768 37.1364 48.8479 37.6999V37.7031H48.8447C47.7431 39.5634 48.3975 41.9424 50.3079 43.0182L50.5052 43.1271C50.4887 43.2519 50.4756 43.38 50.4624 43.5081C50.4197 43.9371 50.3967 44.3469 50.3967 44.7376C50.3967 45.1282 50.4197 45.538 50.4624 45.9639C50.4756 46.092 50.4887 46.2168 50.5052 46.3417L50.3079 46.4538L50.3046 46.4506C48.3975 47.5264 47.7431 49.9053 48.8447 51.7657L49.7654 53.3217V53.3249C49.795 53.3794 49.8245 53.4306 49.8607 53.4786C50.9655 55.2332 53.2803 55.848 55.1479 54.881C55.1907 54.865 55.2334 54.8426 55.2729 54.8202L55.286 60.3049H55.2827C55.2827 61.8834 54.635 63.3915 53.4874 64.5025C52.3563 65.6072 50.8274 66.2411 49.2261 66.2667H49.1307C45.7375 66.2539 42.9886 63.5804 42.9754 60.2761C42.9754 59.6229 42.4329 59.0946 41.7654 59.0946H15.3782L15.3256 38.2954L21.6979 15.1233C22.0037 14.0026 21.8426 12.8084 21.2409 11.8029C20.649 10.7975 19.6659 10.0611 18.515 9.76016L15.8714 9.07177C15.6676 9.01734 15.4604 8.97892 15.25 8.9533L15.2434 6.06847H15.25V6.07167C15.25 4.49314 15.8977 2.98511 17.0453 1.87404C18.1764 0.769372 19.702 0.135437 21.3033 0.109863H21.402C24.7952 0.119468 27.5442 2.79618 27.5573 6.10052C27.554 6.4143 27.6822 6.71527 27.9091 6.93937C28.1393 7.1603 28.4485 7.28587 28.7707 7.28587Z" fill="#45A2C9"/>
</svg>
