<svg width="101" height="100" viewBox="0 0 101 100" fill="none" xmlns="http://www.w3.org/2000/svg">
<path d="M13.262 31.6382L13.019 29.8932L15.408 29.5592L13.262 31.6382ZM30.251 25.5622L58.515 40.6892L60.025 37.8712L28.683 21.0952L3.155 45.8342L5.386 48.1342L28.406 25.8202C28.9 25.3422 29.646 25.2372 30.251 25.5612V25.5622ZM19.259 25.8262L19.434 25.6572L19.243 24.2902L10.621 25.4962L10.831 27.0062L19.259 25.8252V25.8262ZM27.134 51.8462L29.327 67.5122L41.037 67.4992L38.62 50.2382L27.134 51.8462ZM29.778 28.8932L12.25 45.8832L15.282 67.5272L26.137 67.5152L23.785 50.7192C23.727 50.3042 23.836 49.8832 24.088 49.5482C24.341 49.2142 24.716 48.9932 25.131 48.9352L39.747 46.8902C40.612 46.7692 41.41 47.3722 41.531 48.2362L44.228 67.4972L55.083 67.4852L51.292 40.4072L29.778 28.8932ZM81.79 24.7302C82.09 25.0802 82.223 25.5432 82.153 25.9992L79.877 40.8442L94.336 18.6682H88.856C88.321 18.6682 87.822 18.3972 87.53 17.9482C87.239 17.4992 87.194 16.9332 87.413 16.4442L93.734 2.28223H77.511L72.426 24.1792H80.592C81.053 24.1792 81.49 24.3802 81.79 24.7302ZM67.388 70.6322L2.5 70.7012V73.6722H70.534L67.388 70.6322ZM84.243 73.6722H98.501V70.6992L83.051 70.6662L84.243 73.6722ZM84.985 78.0682L80.473 82.7262L80.836 90.4882C80.868 91.1712 80.457 91.7972 79.818 92.0392C79.179 92.2812 78.456 92.0852 78.027 91.5542L70.791 82.5832C70.336 82.0192 70.323 81.2172 70.76 80.6382L73.636 76.8322H2.5V86.2012L14.027 90.0002L20.564 85.3502C20.975 85.0572 21.501 84.9792 21.981 85.1392L28.835 87.4302C29.663 87.7072 30.109 88.6022 29.833 89.4302C29.556 90.2582 28.662 90.7042 27.833 90.4282L21.742 88.3922L15.208 93.0392C14.937 93.2322 14.616 93.3322 14.292 93.3322C14.126 93.3322 13.959 93.3062 13.798 93.2532L2.501 89.5292V97.7192H98.501V76.8322H85.425C85.464 77.2812 85.308 77.7342 84.985 78.0682Z" fill="#45A2C9"/>
</svg>
