<svg width="83" height="76" viewBox="0 0 83 76" fill="none" xmlns="http://www.w3.org/2000/svg">
<path d="M78.8044 30.3309C79.9212 30.3309 81.0117 29.7595 81.6365 28.7236C82.5934 27.1419 82.1014 25.0739 80.5378 24.1066L70.4483 17.8559V5.01057H62.1572V12.7196L43.2304 0.995163C42.1679 0.336899 40.8318 0.336899 39.7692 0.995163L2.46187 24.1075C0.899161 25.0748 0.407147 27.1419 1.36229 28.7245C2.28222 30.2468 4.20423 30.7523 5.74167 29.9249V68.7844H5.00229C3.17145 68.7844 1.68638 70.2884 1.68638 72.1425C1.68638 73.9975 3.17145 75.5015 5.00229 75.5015H5.74076H12.3735H70.6253H77.258H77.9965C79.8273 75.5015 81.3124 73.9975 81.3124 72.1425C81.3124 70.2884 79.8273 68.7844 77.9965 68.7844H77.258V29.9323C77.7491 30.1956 78.2781 30.3309 78.8044 30.3309ZM57.7607 30.9343C59.6601 30.9343 61.1984 32.4949 61.1984 34.4167C61.1984 36.3384 59.661 37.8991 57.7607 37.8991C55.8612 37.8991 54.3229 36.3384 54.3229 34.4167C54.3229 32.4949 55.8612 30.9343 57.7607 30.9343ZM46.5193 49.9352C47.534 49.9352 48.3564 50.77 48.3564 51.7976C48.3564 52.8252 47.534 53.659 46.5193 53.659C45.5045 53.659 44.6812 52.8252 44.6812 51.7976C44.6812 50.77 45.5045 49.9352 46.5193 49.9352ZM39.4406 49.9352C40.421 49.9352 41.2154 50.7407 41.2154 51.7327C41.2154 52.7274 40.421 53.5328 39.4406 53.5328C38.4593 53.5328 37.6639 52.7274 37.6639 51.7327C37.6639 50.7407 38.4593 49.9352 39.4406 49.9352ZM26.4297 32.2773C28.3292 32.2773 29.8666 33.8343 29.8666 35.7588C29.8666 37.6824 28.3292 39.2421 26.4297 39.2421C24.5285 39.2421 22.9902 37.6824 22.9902 35.7588C22.9902 33.8343 24.5276 32.2773 26.4297 32.2773ZM34.0492 54.9161C33.3929 55.1565 32.6761 54.8146 32.4368 54.1527L30.0878 46.355L30.0851 49.0027L33.6962 60.6247H29.7745V68.704C29.7745 69.546 29.1038 70.2335 28.275 70.2335C27.4463 70.2335 26.7746 69.546 26.7746 68.704V61.0498C26.7746 60.814 26.6193 60.6238 26.4288 60.6238C26.2365 60.6238 26.0822 60.814 26.0822 61.0498V68.7031C26.0822 69.5451 25.4105 70.2326 24.5799 70.2326C23.7521 70.2326 23.0804 69.5451 23.0804 68.7031V60.6238H19.1606L22.7572 49.0018L22.7536 46.3541L20.419 54.1518C20.1789 54.8137 19.4594 55.1556 18.8067 54.9152C18.1522 54.6729 17.8172 53.9433 18.0529 53.2805C18.0529 53.2805 19.779 45.1866 21.5845 41.568C22.0007 40.7314 23.2655 40.1628 24.1917 40.1628H28.6623C29.5895 40.1628 30.8534 40.7314 31.2722 41.5689C33.0778 45.1866 34.8003 53.2805 34.8003 53.2805C35.0404 53.9442 34.7028 54.6738 34.0492 54.9161ZM50.5935 62.0427C50.2441 62.1698 49.8596 61.9869 49.7323 61.634L48.4747 57.4632L48.4729 58.8803L50.403 65.0945H48.3077V69.4116C48.3077 69.8669 47.9502 70.2326 47.5042 70.2326C47.0627 70.2326 46.7025 69.8669 46.7025 69.4116V65.3222C46.7025 65.1951 46.6204 65.0945 46.5184 65.0945C46.4145 65.0945 46.3324 65.1951 46.3324 65.3222V69.4116C46.3324 69.8669 45.9749 70.2326 45.528 70.2326C45.0866 70.2326 44.7255 69.8669 44.7255 69.4116V65.0945H42.631L44.5539 58.8803L44.553 57.4632L43.3054 61.634C43.2684 61.7355 43.207 61.8178 43.1348 61.8873C43.0264 62.1991 42.7466 62.4249 42.3981 62.4249C41.9521 62.4249 41.6533 62.0592 41.6533 61.6066V57.6022C41.6533 57.4541 41.3924 57.4541 41.3924 57.6022V69.3284C41.3924 69.8249 40.9952 70.2317 40.5041 70.2317H40.5023C40.0084 70.2317 39.6121 69.8249 39.6121 69.3284V62.434C39.6121 62.3335 39.5164 62.2548 39.4424 62.2548C39.3666 62.2548 39.2727 62.3335 39.2727 62.434V69.3284C39.2727 69.8249 38.8709 70.2317 38.3825 70.2317H38.3798C37.8887 70.2317 37.4897 69.8249 37.4897 69.3284V57.6022C37.4897 57.4541 37.2243 57.4541 37.2243 57.6022V61.6066C37.2243 62.0583 36.9146 62.4249 36.4704 62.4249C36.0227 62.4249 35.6922 62.0592 35.6922 61.6066L35.6886 57.1597C35.6886 55.1154 37.4825 54.0028 39.4424 54.0028C41.312 54.0028 43.0138 55.0286 43.1627 56.9046C43.4038 56.1513 43.6647 55.4372 43.9301 54.9042C44.154 54.4562 44.8302 54.1518 45.3249 54.1518H47.7155C48.212 54.1518 48.8855 54.4562 49.1102 54.9042C50.0744 56.8397 50.9971 61.1659 50.9971 61.1659C51.1234 61.5207 50.942 61.9101 50.5935 62.0427ZM65.0181 53.5356C65.0181 54.4105 64.3537 55.1182 63.4888 55.1182C62.6248 55.1182 62.0416 54.4105 62.0416 53.5356V45.7809C62.0416 45.4938 61.5397 45.4938 61.5397 45.7809V68.4855C61.5397 69.4482 60.7687 70.2326 59.8136 70.2326H59.8109C58.8593 70.2326 58.0902 69.4482 58.0902 68.4855V55.1364C58.0902 54.9426 57.906 54.7863 57.7607 54.7863C57.6153 54.7863 57.4312 54.9426 57.4312 55.1364V68.4855C57.4312 69.4482 56.6602 70.2326 55.7087 70.2326H55.7059C54.7535 70.2326 53.9807 69.4482 53.9807 68.4855V45.7809C53.9807 45.4938 53.4689 45.4938 53.4689 45.7809V53.5356C53.4689 54.4105 52.8694 55.1182 52.0073 55.1182C51.1415 55.1182 50.5023 54.4105 50.5023 53.5356L50.4906 44.9196C50.4906 40.9637 53.9717 38.8051 57.7616 38.8051C61.5523 38.8051 65.0208 40.9627 65.0208 44.9196L65.0181 53.5356Z" fill="#45A2C9"/>
</svg>
