<svg width="87" height="87" viewBox="0 0 87 87" fill="none" xmlns="http://www.w3.org/2000/svg">
<path d="M28.1547 56.9921C30.0345 56.3207 33.1061 56.2872 34.4657 55.7668C35.4056 55.3976 36.8995 54.9948 37.3862 54.4073C37.873 53.8198 37.873 49.6237 37.873 49.6237C37.873 49.6237 36.6981 48.5159 36.2113 47.2738C35.7245 46.0485 35.4056 42.658 35.4056 42.658C35.4056 42.658 34.2978 43.128 33.8614 40.9124C33.4922 38.999 32.7872 37.9919 32.9719 36.582C33.1733 35.1721 33.9454 35.5078 33.9454 35.5078C33.9454 35.5078 32.9719 34.0811 32.9719 29.2303C32.9719 24.2285 36.7484 19.3105 43.8148 19.3105C50.8643 19.3105 54.6744 24.2452 54.6744 29.2303C54.6744 34.0811 53.7177 35.5078 53.7177 35.5078C53.7177 35.5078 54.5066 35.1721 54.6912 36.582C54.8926 37.9919 54.1877 38.999 53.8016 40.9124C53.3652 43.1448 52.2574 42.658 52.2574 42.658C52.2574 42.658 51.9385 46.0317 51.4518 47.2738C50.965 48.5159 49.7901 49.6237 49.7901 49.6237C49.7901 49.6237 49.7901 53.8198 50.2769 54.4073C50.7636 54.9948 52.2574 55.3976 53.1974 55.7501C54.5402 56.2704 57.6118 56.3375 59.5084 57.0089C61.3883 57.6803 67.1958 60.7351 67.1958 68.2882H20.4841C20.4673 60.7183 26.2748 57.6635 28.1547 56.9921Z" fill="#45A2C9"/>
<path d="M63.2515 48.8182C63.2515 48.8182 59.24 48.684 57.6454 47.2573C60.2471 43.3129 58.8372 38.7139 59.3743 34.417C59.9114 30.1369 62.3452 27.5688 67.2127 27.5688H67.2798C71.9796 27.5688 74.514 30.1201 75.0511 34.417C75.5883 38.6971 74.0944 43.8164 76.7632 47.2573C75.1686 48.7007 71.1403 48.6504 71.1403 48.6504C71.1403 48.6504 70.9725 51.0674 71.3082 51.4702C71.6439 51.873 72.6342 52.2591 73.3223 52.3934C74.7994 52.7123 76.3604 53.1487 77.6696 53.6019C78.9788 54.0551 81.4629 56.4888 81.4629 59.8458H67.9848C67.6155 58.503 65.0811 56.1028 62.6137 54.8439C61.1031 54.0718 59.6093 54.1222 58.4679 53.9711C58.4679 53.9711 57.8301 52.964 59.9282 52.578C59.9282 52.578 62.8151 51.8563 63.1508 51.4534C63.4697 51.0842 63.2515 48.8182 63.2515 48.8182ZM24.3111 48.8182C24.3111 48.8182 28.3226 48.684 29.9172 47.2573C27.3156 43.3129 28.7255 38.7139 28.1884 34.417C27.6512 30.1369 25.2175 27.5688 20.3499 27.5688H20.2828C15.5831 27.5688 13.0486 30.1201 12.5115 34.417C11.9744 38.6971 13.4682 43.8164 10.7994 47.2573C12.394 48.7007 16.4223 48.6504 16.4223 48.6504C16.4223 48.6504 16.5901 51.0674 16.2545 51.4702C15.9188 51.873 14.9285 52.2591 14.2403 52.3934C12.7632 52.7123 11.2023 53.1487 9.89307 53.6019C8.58386 54.0551 6.09973 56.4888 6.09973 59.8458H19.5778C19.9471 58.503 22.4816 56.1028 24.9489 54.8439C26.4595 54.0718 27.9534 54.1222 29.0947 53.9711C29.0947 53.9711 29.7325 52.964 27.6345 52.578C27.6345 52.578 24.7475 51.8563 24.4118 51.4534C24.0929 51.0842 24.3111 48.8182 24.3111 48.8182Z" fill="#45A2C9"/>
</svg>
