<svg width="100" height="100" viewBox="0 0 100 100" fill="none" xmlns="http://www.w3.org/2000/svg">
<path d="M25.75 6.05957C29.025 6.05957 31.684 8.71157 31.684 11.9916C31.684 15.2646 29.026 17.9226 25.75 17.9226C22.469 17.9226 19.818 15.2666 19.818 11.9916C19.817 8.71357 22.469 6.05957 25.75 6.05957Z" fill="#45A2C9"/>
<path d="M46.939 21.1743C49.901 21.1743 52.302 23.5723 52.302 26.5373C52.302 29.4973 49.901 31.8983 46.939 31.8983C43.975 31.8983 41.578 29.4993 41.578 26.5373C41.578 23.5743 43.976 21.1743 46.939 21.1743Z" fill="#45A2C9"/>
<path d="M37.2331 37.9214C37.2701 37.9344 37.3051 37.9464 37.3411 37.9604C37.7331 38.1024 38.1471 38.2534 38.5791 38.4134C43.6161 40.2824 51.0791 43.3604 57.1991 47.1594L57.1941 38.7204C57.1941 35.9424 54.9481 33.6924 52.1781 33.6924H41.7111C40.5481 33.6924 39.4871 34.0974 38.6381 34.7614L38.6331 25.9684C38.6331 22.4794 35.8101 19.6514 32.3311 19.6514H19.1821C15.7001 19.6514 12.8771 22.4794 12.8771 25.9684L12.8571 44.6944C20.3401 40.7494 28.4561 37.8944 31.5531 36.8634V34.0034H34.1921V36.8664C34.9431 37.1164 35.9801 37.4714 37.2331 37.9214Z" fill="#45A2C9"/>
<path d="M78.47 42.6982C78.458 42.7992 78.446 42.8962 78.446 42.9982C78.446 45.3622 80.431 47.2752 82.876 47.2752C85.318 47.2752 87.302 45.3592 87.302 42.9982C87.302 42.8952 87.283 42.7992 87.28 42.6982H78.47Z" fill="#45A2C9"/>
<path d="M77.655 35.2227C77.642 35.3557 77.626 35.4877 77.626 35.6257C77.626 38.7997 80.094 41.3727 83.131 41.3727C86.169 41.3727 88.633 38.8007 88.633 35.6257C88.633 35.4877 88.613 35.3537 88.606 35.2227H77.655Z" fill="#45A2C9"/>
<path d="M90.276 31.9584C89.909 28.6914 87.496 24.4814 83.137 24.4814C78.861 24.4814 76.367 28.7094 75.975 31.9584H74.115V33.3564H92.142V31.9584H90.276Z" fill="#45A2C9"/>
<path d="M43.641 66.4364C48.942 68.1954 51.032 68.1954 56.431 66.4364C58.74 65.6894 60.316 65.2624 61.859 65.1774C62.992 62.6314 63.797 60.3644 63.761 59.1224C63.494 49.8734 40.233 41.7194 34.192 39.7554V65.6544C37.527 64.7944 39.451 65.0534 43.641 66.4364Z" fill="#45A2C9"/>
<path d="M6.75998 66.4365C9.38598 65.5835 11.39 65.1506 12.724 65.1506C14.141 65.1506 16.188 65.5845 18.807 66.4365C24.171 68.1895 26.282 68.1945 31.552 66.4505V39.6855C25.88 41.5155 2.03598 49.7576 1.76698 59.1236C1.72098 60.6656 2.97198 63.7915 4.54498 67.0765C5.23898 66.8985 5.96498 66.6965 6.75998 66.4365Z" fill="#45A2C9"/>
<path d="M93.3021 85.2196C88.1451 83.5176 86.4151 83.5176 81.2631 85.2196C75.9591 86.9796 73.8521 86.9796 68.4771 85.2196C63.0511 83.4606 61.5151 83.5736 56.4311 85.2196C51.0331 86.9796 48.9421 86.9796 43.6411 85.2196C38.4791 83.5176 36.7581 83.5176 31.5961 85.2196C26.2941 86.9796 24.1881 86.9796 18.8081 85.2196C16.1881 84.3676 14.1421 83.9336 12.7251 83.9336C11.3911 83.9336 9.38706 84.3686 6.76106 85.2196C4.31706 86.0216 2.36606 86.4106 0.83606 86.4856V94.4126L0.85706 94.7266C1.76106 94.2336 3.80206 93.7996 6.43106 92.9486C11.9551 91.1426 13.9221 91.2426 19.1511 92.9486C24.2471 94.6016 25.7951 94.7166 31.2001 92.9486C36.5701 91.1886 38.6491 91.1886 44.0531 92.9486C49.4531 94.7086 50.9991 94.6016 56.1031 92.9486C61.3221 91.2266 63.2771 91.1366 68.8191 92.9486C73.8881 94.6016 75.4391 94.7086 80.8691 92.9486C86.2461 91.1886 88.3511 91.1886 93.6541 92.9486C95.9311 93.7076 97.7791 94.1286 99.1651 94.2156V86.0506C98.0861 86.5766 95.9501 86.1046 93.3021 85.2196Z" fill="#45A2C9"/>
<path d="M93.3021 71.8314C88.1451 70.1294 86.4151 70.1294 81.2631 71.8314C75.9591 73.5924 73.8521 73.5924 68.4771 71.8314C63.0511 70.0704 61.5151 70.1864 56.4311 71.8314C51.0331 73.5924 48.9421 73.5924 43.6411 71.8314C38.4791 70.1294 36.7581 70.1294 31.5961 71.8314C26.2941 73.5924 24.1881 73.5924 18.8081 71.8314C16.1881 70.9794 14.1421 70.5444 12.7251 70.5444C11.3911 70.5444 9.38706 70.9804 6.76106 71.8314C4.31706 72.6344 2.36606 73.0214 0.83606 73.0974V81.0254L0.85706 81.3384C1.76106 80.8454 3.80206 80.4114 6.43106 79.5604C11.9551 77.7534 13.9221 77.8544 19.1511 79.5604C24.2471 81.2124 25.7951 81.3284 31.2001 79.5604C36.5701 77.8014 38.6491 77.8014 44.0531 79.5604C49.4531 81.3194 50.9991 81.2124 56.1031 79.5604C61.3221 77.8384 63.2771 77.7484 68.8191 79.5604C73.8881 81.2124 75.4391 81.3194 80.8691 79.5604C86.2461 77.8014 88.3511 77.8014 93.6541 79.5604C95.9311 80.3194 97.7791 80.7394 99.1651 80.8284V72.6614C98.0861 73.1884 95.9501 72.7144 93.3021 71.8314Z" fill="#45A2C9"/>
<path d="M85.35 54.7234V49.4214H80.046V54.7234H74.745V60.0254H80.046V65.3274H85.35V60.0254H90.65V54.7234H85.35Z" fill="#45A2C9"/>
<path d="M74.7079 42.7573C73.5139 42.9453 72.1469 42.9853 69.6549 44.4863L61.4189 50.0913C63.3409 51.6123 64.9599 53.2083 66.0659 54.8623L72.6149 50.7093C72.6149 50.7093 75.046 49.2113 75.273 47.2943C75.564 44.8663 75.0579 43.5463 74.7079 42.7573Z" fill="#45A2C9"/>
<path d="M92.3019 51.2682H93.8119V66.6002C96.1209 67.3402 97.9849 67.7152 99.0229 67.3112V50.8762C99.0229 46.9242 95.7739 43.0582 91.2539 42.8232C90.9989 43.6432 90.7729 45.1162 91.0699 47.5422C91.3479 49.7932 92.3019 51.2682 92.3019 51.2682Z" fill="#45A2C9"/>
</svg>
