<svg width="91" height="90" viewBox="0 0 91 90" fill="none" xmlns="http://www.w3.org/2000/svg">
<g clip-path="url(#clip0_1292_7387)">
<path fill-rule="evenodd" clip-rule="evenodd" d="M43.837 0.00146484C47.0065 0.00146484 50.0978 0.3419 53.0756 0.991465C53.7213 1.12842 54.1635 1.69973 54.14 2.36494C54.14 2.38451 54.14 2.40407 54.14 2.42364V14.9376C54.14 15.5362 54.363 16.088 54.7348 16.5067C54.4491 16.7062 54.23 16.9958 54.1087 17.348L53.3652 19.5197C53.1656 20.0949 53.0835 20.6154 53.0952 21.2219L53.3417 35.9036C53.3691 37.4845 55.7326 37.4845 55.7326 35.9036V31.3723C55.7326 31.1454 55.9204 30.9576 56.1513 30.9576H56.3078C56.5348 30.9576 56.7187 31.2628 56.7226 31.4936L56.8791 40.0006C56.9065 41.5815 59.27 41.5854 59.27 40.0006V32.0219C59.27 31.7949 59.4109 31.6071 59.6378 31.6071C60.0056 31.6071 60.0135 31.9984 60.0213 32.3036L60.2952 42.0745C60.3422 43.8471 62.8035 43.6632 62.8035 42.0823V32.6793C62.8035 32.4015 62.9248 32.1276 63.1987 32.1471C63.5587 32.1745 63.5822 32.5228 63.5939 32.7771C63.7035 34.6202 63.7974 40.3371 63.8013 40.9632C63.813 43.0136 66.337 42.8845 66.337 40.9984V40.3136V30.9576V30.0028V28.1793C66.337 27.9797 66.4739 27.8075 66.6696 27.7645C66.8613 27.7215 67.057 27.8154 67.143 27.9954L68.6183 31.071C69.7843 33.5715 73.1261 32.378 71.9365 29.4706L69.7922 23.2684C69.573 22.6384 69.3304 22.118 68.9861 21.5428L66.29 17.0271C66.1648 16.8158 66.0004 16.6397 65.8126 16.5028C65.8987 16.3228 65.9496 16.1154 65.9496 15.9002V8.52799C65.9496 8.01146 66.2156 7.5732 66.6696 7.3306C67.1235 7.08799 67.6361 7.11538 68.0626 7.40494C79.5904 15.1919 87.17 28.3789 87.17 43.3384C87.17 48.4606 86.2778 53.3754 84.6461 57.938C84.4504 58.4858 83.9535 58.8341 83.3704 58.8341H71.2713C71.0561 58.8341 70.8487 58.8849 70.6687 58.971C70.5317 58.7832 70.3557 58.6228 70.1443 58.4936L65.6287 55.7975C65.0535 55.4532 64.533 55.2106 63.903 54.9954L57.7048 52.8471C54.7935 51.6576 53.6 55.0032 56.1043 56.1654L59.1761 57.6406C59.3561 57.7267 59.45 57.9223 59.407 58.118C59.3639 58.3136 59.1956 58.4467 58.9922 58.4467H57.1726H56.2139H46.8578H46.177C44.2909 58.4467 44.1578 60.9745 46.2083 60.9823C46.8343 60.9862 52.5513 61.0841 54.3943 61.1897C54.6487 61.2054 54.997 61.2289 55.0243 61.5889C55.0439 61.8589 54.77 61.9802 54.4922 61.9802H45.0891C43.5083 61.9802 43.3243 64.4415 45.097 64.4923L54.8678 64.7623C55.173 64.7702 55.5643 64.778 55.5643 65.1458C55.5643 65.3767 55.3765 65.5175 55.1496 65.5175H47.1709C45.59 65.5175 45.59 67.8771 47.1709 67.9084L55.6778 68.0649C55.9087 68.0688 56.2139 68.2489 56.2139 68.4797V68.6362C56.2139 68.8632 56.0261 69.051 55.7991 69.051H51.2678C49.687 69.051 49.687 71.4145 51.2678 71.4419L65.9496 71.6884C66.5561 71.7002 67.0804 71.618 67.6517 71.4223L69.8235 70.6789C70.1796 70.5575 70.4691 70.3345 70.6687 70.0489C71.0874 70.4206 71.6352 70.6476 72.2339 70.6476H74.5035C75.0552 70.6476 75.5287 70.9567 75.7478 71.4615C75.9669 71.9662 75.8691 72.5219 75.4935 72.9249C67.5852 81.3849 56.3274 86.6715 43.837 86.6715C38.7109 86.6715 33.7961 85.7793 29.2335 84.1475C28.6856 83.9519 28.3374 83.4549 28.3374 82.8719V70.7728C28.3374 70.5575 28.2865 70.3502 28.2004 70.1702C28.3883 70.0332 28.5487 69.8571 28.6778 69.6458L31.3739 65.1301C31.7183 64.5549 31.9609 64.0345 32.18 63.4045L34.3243 57.2062C35.5139 54.2949 32.1683 53.1015 31.0061 55.6058L29.5309 58.6775C29.4448 58.8575 29.2491 58.9515 29.0535 58.9084C28.8578 58.8654 28.7248 58.6971 28.7248 58.4936V56.6741V55.7154V46.3593V45.6784C28.7248 43.7923 26.197 43.6593 26.1891 45.7097C26.1852 46.3358 26.0913 52.0528 25.9817 53.8958C25.9661 54.1502 25.9426 54.4984 25.5865 54.5258C25.3126 54.5454 25.1913 54.2715 25.1913 53.9936V44.5906C25.1913 43.0097 22.73 42.8258 22.6791 44.5984L22.4091 54.3693C22.4013 54.6745 22.3935 55.0658 22.0257 55.0658C21.7948 55.0658 21.6539 54.878 21.6539 54.651V46.6723C21.6539 45.0915 19.2943 45.0915 19.263 46.6723L19.1065 55.1793C19.1026 55.4102 18.9226 55.7154 18.6917 55.7154H18.5352C18.3083 55.7154 18.1204 55.5275 18.1204 55.3006V50.7693C18.1204 49.1884 15.757 49.1884 15.7296 50.7693L15.483 65.451C15.4713 66.0575 15.5535 66.5819 15.7491 67.1532L16.4926 69.3249C16.6139 69.681 16.837 69.9706 17.1226 70.1702C16.7509 70.5889 16.5239 71.1367 16.5239 71.7354V74.0049C16.5239 74.5567 16.2148 75.0262 15.71 75.2454C15.2052 75.4684 14.6496 75.3706 14.2465 74.9949C5.78652 67.0867 0.5 55.8289 0.5 43.3384C0.5 40.1649 0.840435 37.0736 1.49 34.0958C1.62696 33.4502 2.19826 33.008 2.86348 33.0315C2.88304 33.0315 2.90261 33.0315 2.92217 33.0315H15.4361C16.0348 33.0315 16.5865 32.8084 17.0052 32.4367C17.2048 32.7223 17.4943 32.9415 17.8465 33.0628L20.0183 33.8062C20.5935 34.0058 21.1139 34.088 21.7204 34.0762L36.4022 33.8297C37.983 33.8023 37.983 31.4389 36.4022 31.4389H31.8709C31.6439 31.4389 31.4561 31.251 31.4561 31.0202V30.8675C31.4561 30.6367 31.7613 30.4528 31.9922 30.4489L40.4991 30.2923C42.08 30.2649 42.0839 27.9015 40.4991 27.9015H32.5204C32.2935 27.9015 32.1056 27.7606 32.1056 27.5336C32.1056 27.1658 32.497 27.158 32.8022 27.1502L42.573 26.8802C44.3456 26.8293 44.1617 24.368 42.5809 24.368H33.1778C32.9 24.368 32.6261 24.2467 32.6457 23.9728C32.673 23.6167 33.0213 23.5932 33.2757 23.5776C35.1187 23.468 40.8357 23.3741 41.4617 23.3702C43.5122 23.3584 43.383 20.8345 41.497 20.8345H40.8122H31.4561H30.5013H28.6778C28.4783 20.8345 28.3061 20.6975 28.263 20.5019C28.22 20.3102 28.3139 20.1145 28.4939 20.0284L31.5696 18.5532C34.07 17.391 32.8765 14.0454 29.9691 15.2349L23.767 17.3793C23.137 17.5984 22.6165 17.841 22.0413 18.1854L17.5257 20.8815C17.3143 21.0067 17.1383 21.171 17.0013 21.3589C16.8213 21.2728 16.6139 21.2219 16.3987 21.2219H9.02652C8.51 21.2219 8.07174 20.9558 7.82913 20.5019C7.58652 20.048 7.61391 19.5354 7.90348 19.1089C15.6904 7.58103 28.8774 0.00146484 43.837 0.00146484ZM43.3283 40.4193C43.3478 40.4584 43.387 40.478 43.43 40.478C43.473 40.478 43.5083 40.4584 43.5317 40.4193C45.1713 37.5354 47.6796 35.3049 51.1113 36.4593C53.7526 37.3515 55.6622 39.9576 55.6622 43.0332C55.6622 47.4119 51.17 50.9649 48.2822 53.7823L44.2165 57.5232C43.7704 57.9341 43.0857 57.9341 42.6396 57.5232L38.5778 53.7823C35.6861 50.9649 31.1939 47.4119 31.1939 43.0332C31.1939 39.8754 33.2091 37.2106 35.96 36.3928C39.3174 35.3949 41.7435 37.6293 43.3283 40.4193Z" fill="#45A2C9"/>
</g>
<defs>
<clipPath id="clip0_1292_7387">
<rect width="90" height="90" fill="white" transform="translate(0.5 0.00146484)"/>
</clipPath>
</defs>
</svg>
